<svg xmlns="http://www.w3.org/2000/svg" version="1.1" xmlns:xlink="http://www.w3.org/1999/xlink" width="512" height="512" x="0" y="0" viewBox="0 0 512 512" style="enable-background:new 0 0 512 512" xml:space="preserve"><g><linearGradient id="a" x1="55.722" x2="456.29" y1="458.29" y2="57.722" gradientTransform="matrix(1 0 0 -1 0 514)" gradientUnits="userSpaceOnUse"><stop offset="0" stop-opacity=".05"></stop><stop offset="1" stop-opacity=".3"></stop></linearGradient><path fill="#0033a0" d="M40 88h432c22.1 0 40 17.9 40 40v256c0 22.1-17.9 40-40 40H40c-22.1 0-40-17.9-40-40V128c0-22.1 17.9-40 40-40z" opacity="1" data-original="#0033a0"></path><path fill="#f2a800" d="M512 312v72c0 22.1-17.9 40-40 40H40c-22.1 0-40-17.9-40-40v-72z" opacity="1" data-original="#f2a800"></path><path fill="#d90012" d="M512 128v72H0v-72c0-22.1 17.9-40 40-40h432c22.1 0 40 17.9 40 40z" opacity="1" data-original="#d90012"></path><path fill="url(#a)" d="M502.9 102.6c-7.6-9.3-19-14.6-30.9-14.6H40c-22.1 0-40 17.9-40 40v256c0 9.4 3.3 18.4 9.3 25.6.8 1 1.7 1.9 2.6 2.9C19.4 419.9 29.5 424 40 424h432c22.1 0 40-17.9 40-40V128c0-9.3-3.2-18.3-9.1-25.4zM40 400c-2.5 0-5-.6-7.2-1.7-1.5-.7-2.8-1.7-3.9-2.9-3.1-3-4.8-7.1-4.8-11.3V127.9c0-8.8 7.1-15.9 15.9-15.9h432.2c7.2.1 13.5 4.9 15.4 11.9-11 187-134 253.7-200.2 276.1z" opacity="1" data-original="url(#a)"></path></g></svg>