<svg xmlns="http://www.w3.org/2000/svg" version="1.1" xmlns:xlink="http://www.w3.org/1999/xlink" width="512" height="512" x="0" y="0" viewBox="0 0 512 512" style="enable-background:new 0 0 512 512" xml:space="preserve"><g><linearGradient id="a" x1="55.719" x2="456.287" y1="458.287" y2="57.719" gradientTransform="matrix(1 0 0 -1 0 514)" gradientUnits="userSpaceOnUse"><stop offset="0" stop-opacity=".05"></stop><stop offset="1" stop-opacity=".3"></stop></linearGradient><path fill="#012169" d="M512 128v257c-.5 21.3-17.7 38.5-39 39H39c-21.7-.5-39-18.3-39-40V128c0-9 3-17.7 8.6-24.8C15.9 93.9 27.1 88.3 39 88h434c21 .5 38 17.2 39 38.2z" opacity="1" data-original="#012169"></path><path fill="#f2f2f2" d="M512 375.5v9.5c-.5 21.3-17.7 38.5-39 39h-2.4L296.1 312.5l-25.2-16.1-12.7-8.1-23.6 15.1-25.2 16.1L45.7 424H39c-21.7-.5-39-18.3-39-40v-5.7l111.8-71.4 46.4-29.6 41.5-26.5-25.2-16.1-46.5-29.6L.3 123.5c.8-7.4 3.7-14.4 8.3-20.3C15.9 93.9 27.1 88.3 39 88h23l147.4 94.2 25.2 16.1 23.6 15.1 12.7-8.1 25.2-16.1L454.4 88H473c21 .5 38 17.2 39 38.2l-123.5 78.9-46.4 29.6-25.2 16.1 41.5 26.5 46.4 29.6z" opacity="1" data-original="#f2f2f2"></path><path fill="#da0e15" d="M509 399.2c-2.6 6.3-6.7 11.8-12 16L327.5 306.9l-46.4-29.6-22.9-14.6-23.6 15.1-45.6 29.1L17 416.7c-5.6-3.9-10-9.2-13-15.4l147.9-94.5 46.4-29.6 41.4-26.5-25.3-16.1-46.4-29.5L8.6 103.2c4.5-5.7 10.5-10.1 17.3-12.7L205.2 205l29.4 18.8 23.6 15.1 12.7-8.1 40.3-25.8L488.8 91.7c6.4 3 12 7.6 16 13.5l-156.4 99.9-46.4 29.6-25.2 16.1 41.5 26.5 46.4 29.6z" opacity="1" data-original="#da0e15"></path><path fill="#f2f2f2" d="M512 205.1H296.1V88h-86.7v117.1H0v101.8h209.4V424h86.7V306.9H512z" opacity="1" data-original="#f2f2f2"></path><path fill="#da0e15" d="M512 234.7H270.9V88h-36.3v146.7H0v42.6h234.6V424h36.3V277.3H512z" opacity="1" data-original="#da0e15"></path><path fill="url(#a)" d="M502.9 102.6c-7.6-9.3-19-14.6-30.9-14.6H40c-22.1 0-40 17.9-40 40v256c0 9.4 3.3 18.5 9.3 25.6.8 1 1.7 1.9 2.6 2.8C19.4 419.9 29.5 424 40 424h432c22.1 0 40-17.9 40-40V128c0-9.3-3.2-18.3-9.1-25.4zM40 400c-2.5 0-5-.6-7.2-1.7-1.5-.7-2.8-1.7-3.9-2.8-3.1-3-4.8-7.1-4.8-11.3V127.9c0-4.3 1.7-8.3 4.8-11.3 1.2-1.2 2.5-2.1 4-2.9 2.2-1.1 4.7-1.7 7.1-1.7h432.2c7.2 0 13.5 4.9 15.4 11.9-11 187-134 253.7-200.2 276.1z" opacity="1" data-original="url(#a)"></path></g></svg>