<svg width="294" height="84" viewBox="0 0 294 84" fill="none" xmlns="http://www.w3.org/2000/svg">
<path d="M0.178256 74.3177H8.63404C8.73248 74.3177 8.81229 74.2376 8.81229 74.1388L8.81229 26.8752C8.81229 26.7764 8.73248 26.6964 8.63404 26.6964H0.178256C0.0798111 26.6964 5.72205e-06 26.7764 5.72205e-06 26.8752L5.72205e-06 74.1388C5.72205e-06 74.2376 0.0798111 74.3177 0.178256 74.3177Z" fill="white"/>
<path d="M103.074 26.797V74.2059C103.071 74.2347 103.059 74.2617 103.038 74.2821C103.018 74.3025 102.991 74.3151 102.962 74.3176H34.0237C33.9941 74.3176 33.9658 74.3059 33.9449 74.2849C33.924 74.2639 33.9122 74.2355 33.9122 74.2059V26.797C33.9122 26.7828 33.9151 26.7687 33.9208 26.7557C33.9265 26.7427 33.9349 26.7311 33.9454 26.7216C33.956 26.7121 33.9684 26.7049 33.9819 26.7006C33.9953 26.6962 34.0096 26.6948 34.0237 26.6964H42.6243C42.6509 26.6964 42.6764 26.707 42.6952 26.7258C42.714 26.7447 42.7245 26.7703 42.7245 26.797V65.3635C42.7244 65.3777 42.7274 65.3918 42.7331 65.4048C42.7388 65.4178 42.7472 65.4294 42.7577 65.4389C42.7682 65.4484 42.7807 65.4556 42.7941 65.4599C42.8076 65.4643 42.8219 65.4657 42.8359 65.4641H94.1499C94.1765 65.4641 94.202 65.4535 94.2208 65.4346C94.2396 65.4158 94.2502 65.3902 94.2502 65.3635V26.797C94.253 26.7693 94.2659 26.7437 94.2865 26.7251C94.3071 26.7065 94.3339 26.6962 94.3616 26.6964H102.962C102.99 26.6962 103.017 26.7065 103.037 26.7251C103.058 26.7437 103.071 26.7693 103.074 26.797Z" fill="white"/>
<path d="M42.7134 9.79415V18.4241C42.7134 18.4508 42.7028 18.4764 42.684 18.4952C42.6652 18.5141 42.6397 18.5247 42.6131 18.5247H25.9021C25.8745 18.5275 25.849 18.5405 25.8304 18.5612C25.8119 18.5818 25.8017 18.6087 25.8018 18.6365V74.2059C25.7993 74.2347 25.7868 74.2617 25.7664 74.2821C25.746 74.3026 25.7191 74.3151 25.6904 74.3176H17.0564C17.0277 74.3151 17.0008 74.3026 16.9804 74.2821C16.96 74.2617 16.9475 74.2347 16.945 74.2059V18.6365C16.9451 18.6087 16.9349 18.5818 16.9164 18.5612C16.8979 18.5405 16.8723 18.5275 16.8447 18.5247H0.100277C0.0736846 18.5247 0.0481815 18.5141 0.029378 18.4952C0.0105744 18.4764 1.07219e-05 18.4508 1.07219e-05 18.4241V9.79415C-0.00156284 9.78003 -0.000138064 9.76573 0.00419126 9.75221C0.00852059 9.73868 0.0156563 9.72622 0.0251286 9.71566C0.0346009 9.7051 0.0461949 9.69667 0.0591475 9.69093C0.0721001 9.68519 0.0861175 9.68227 0.100277 9.68236H42.6131C42.6273 9.68227 42.6413 9.68519 42.6543 9.69093C42.6672 9.69667 42.6788 9.7051 42.6883 9.71566C42.6977 9.72622 42.7049 9.73868 42.7092 9.75221C42.7135 9.76573 42.715 9.78003 42.7134 9.79415Z" fill="white"/>
<path d="M120.019 9.79415V74.2059C120.019 74.2355 120.007 74.2639 119.986 74.2849C119.965 74.3059 119.937 74.3176 119.907 74.3176H111.307C111.279 74.3149 111.253 74.3019 111.235 74.2812C111.216 74.2605 111.206 74.2337 111.206 74.2059V18.6365C111.206 18.6069 111.195 18.5784 111.174 18.5575C111.153 18.5365 111.124 18.5247 111.095 18.5247H59.7809C59.7533 18.5275 59.7278 18.5405 59.7093 18.5612C59.6907 18.5818 59.6805 18.6087 59.6807 18.6365V48.3607C59.6807 48.3874 59.6912 48.413 59.71 48.4318C59.7288 48.4507 59.7543 48.4613 59.7809 48.4613H77.1938C77.2079 48.4629 77.2221 48.4614 77.2356 48.4571C77.2491 48.4528 77.2615 48.4456 77.272 48.4361C77.2825 48.4266 77.2909 48.415 77.2967 48.402C77.3024 48.389 77.3053 48.3749 77.3052 48.3607V26.797C77.3052 26.7703 77.3158 26.7447 77.3346 26.7258C77.3534 26.707 77.3789 26.6964 77.4055 26.6964H86.0172C86.0438 26.6964 86.0693 26.707 86.0881 26.7258C86.1069 26.7447 86.1175 26.7703 86.1175 26.797V57.203C86.1175 57.2297 86.1069 57.2553 86.0881 57.2742C86.0693 57.2931 86.0438 57.3037 86.0172 57.3037H50.9686C50.9555 57.3037 50.9424 57.3011 50.9303 57.296C50.9181 57.2909 50.907 57.2835 50.8977 57.2742C50.8884 57.2648 50.881 57.2538 50.876 57.2415C50.871 57.2293 50.8684 57.2163 50.8684 57.203V9.79415C50.8668 9.78003 50.8682 9.76573 50.8726 9.75221C50.8769 9.73868 50.884 9.72622 50.8935 9.71566C50.903 9.7051 50.9146 9.69667 50.9275 9.69093C50.9405 9.68519 50.9545 9.68227 50.9686 9.68236H119.907C119.922 9.68056 119.938 9.68222 119.952 9.6872C119.966 9.69218 119.979 9.70036 119.99 9.71112C120.001 9.72189 120.009 9.73495 120.014 9.74933C120.019 9.76371 120.02 9.77903 120.019 9.79415Z" fill="white"/>
<path d="M130.569 11.2362H133.777V25.1313H130.569V11.2362Z" fill="white"/>
<path d="M149.753 11.2362V25.1313H147.124L140.217 16.7026V25.1313H137.03V11.2362H139.682L146.589 19.6426V11.2362H149.753Z" fill="white"/>
<path d="M156.237 13.8185V17.4963H162.654V20.0674H156.248V25.1313H153.051V11.2362H163.512V13.8185H156.237Z" fill="white"/>
<path d="M168.358 24.4383C167.235 23.8502 166.298 22.9599 165.651 21.8672C164.99 20.7564 164.65 19.4829 164.67 18.1894C164.651 16.8924 164.99 15.6153 165.651 14.5004C166.298 13.411 167.236 12.5245 168.358 11.9405C169.554 11.3036 170.892 10.9805 172.246 11.0015C173.593 10.9789 174.924 11.3022 176.112 11.9405C177.23 12.5336 178.169 13.4179 178.83 14.5004C179.491 15.6153 179.83 16.8924 179.811 18.1894C179.831 19.4829 179.491 20.7564 178.83 21.8672C178.17 22.9531 177.231 23.8411 176.112 24.4383C174.923 25.0731 173.592 25.3925 172.246 25.3661C170.893 25.3909 169.555 25.0717 168.358 24.4383ZM174.452 22.0684C175.107 21.6978 175.647 21.1522 176.012 20.4922C176.389 19.7843 176.58 18.9919 176.569 18.1894C176.581 17.3867 176.39 16.5941 176.012 15.8865C175.653 15.2218 175.112 14.6746 174.452 14.3103C173.77 13.9306 173.004 13.7313 172.224 13.7313C171.444 13.7313 170.677 13.9306 169.996 14.3103C169.338 14.6776 168.797 15.224 168.436 15.8865C168.058 16.5941 167.866 17.3867 167.879 18.1894C167.867 18.9919 168.059 19.7843 168.436 20.4922C168.804 21.1498 169.343 21.6946 169.996 22.0684C170.68 22.4411 171.446 22.6364 172.224 22.6364C173.002 22.6364 173.768 22.4411 174.452 22.0684Z" fill="white"/>
<path d="M191.052 25.1313L188.378 21.2635H185.437V25.1313H182.228V11.2362H188.278C189.375 11.2131 190.464 11.4227 191.475 11.851C192.344 12.218 193.08 12.8433 193.584 13.6428C194.088 14.4422 194.335 15.3775 194.294 16.3225C194.328 17.2605 194.072 18.1863 193.562 18.9728C193.051 19.7593 192.31 20.3681 191.442 20.7157L194.55 25.1872L191.052 25.1313ZM190.238 14.4892C189.594 14.021 188.803 13.799 188.01 13.8632H185.403V18.7036H188.01C188.805 18.7645 189.595 18.5386 190.238 18.0664C190.489 17.8436 190.686 17.5671 190.815 17.2575C190.944 16.9479 191.002 16.613 190.985 16.2778C191.002 15.9426 190.944 15.6077 190.815 15.2981C190.686 14.9884 190.489 14.712 190.238 14.4892Z" fill="white"/>
<path d="M209.367 25.1313V16.792L205.289 23.6669H203.875L199.819 16.9597V25.1202H196.811V11.2362H199.418L204.599 19.8773L209.701 11.2362H212.33V25.1313H209.367Z" fill="white"/>
<path d="M224.774 22.1578H218.357L217.132 25.1313H213.845L220.017 11.2362H223.181L229.364 25.1313H226.022L224.774 22.1578ZM223.761 19.7097L221.533 14.3998L219.304 19.7097H223.761Z" fill="white"/>
<path d="M232.974 13.8632H228.518V11.2362H240.639V13.8632H236.182V25.1313H232.974V13.8632Z" fill="white"/>
<path d="M242.332 11.2362H245.53V25.1313H242.332V11.2362Z" fill="white"/>
<path d="M251.635 24.4382C250.504 23.8408 249.561 22.9404 248.91 21.8372C248.259 20.734 247.926 19.4713 247.947 18.1894C247.927 16.8924 248.267 15.6153 248.927 14.5004C249.578 13.4133 250.515 12.5274 251.635 11.9405C252.841 11.3178 254.177 10.9929 255.534 10.9929C256.89 10.9929 258.227 11.3178 259.433 11.9405C260.566 12.5364 261.511 13.4361 262.164 14.5394C262.817 15.6427 263.152 16.9063 263.132 18.1894C263.148 19.4717 262.812 20.7337 262.159 21.8363C261.507 22.9389 260.563 23.8393 259.433 24.4382C258.225 25.0539 256.889 25.3748 255.534 25.3748C254.179 25.3748 252.843 25.0539 251.635 24.4382ZM257.74 22.0684C258.389 21.6943 258.925 21.1493 259.288 20.4922C259.674 19.7871 259.87 18.9935 259.856 18.1894C259.871 17.3851 259.675 16.591 259.288 15.8865C258.931 15.2248 258.394 14.6782 257.74 14.3103C257.057 13.9326 256.291 13.7345 255.512 13.7345C254.732 13.7345 253.966 13.9326 253.283 14.3103C252.646 14.6849 252.125 15.2308 251.779 15.8865C251.392 16.591 251.196 17.3851 251.211 18.1894C251.198 18.9935 251.394 19.7871 251.779 20.4922C252.143 21.1493 252.678 21.6943 253.328 22.0684C254.013 22.4392 254.778 22.6333 255.556 22.6333C256.334 22.6333 257.1 22.4392 257.784 22.0684H257.74Z" fill="white"/>
<path d="M278.205 11.2362V25.1313H275.576L268.68 16.7026V25.1313H265.505V11.2362H268.156L275.041 19.6426V11.2362H278.205Z" fill="white"/>
<path d="M133.443 37.6738H128.987V35.058H141.052V37.6738H136.596V48.942H133.399L133.443 37.6738Z" fill="white"/>
<path d="M153.507 46.3709V48.942H142.79V35.058H153.251V37.6291H145.943V40.6474H152.371V43.1179H145.943V46.3373L153.507 46.3709Z" fill="white"/>
<path d="M158.822 48.2601C157.708 47.6722 156.779 46.7861 156.137 45.7001C155.495 44.5733 155.157 43.2979 155.157 42C155.157 40.7021 155.495 39.4267 156.137 38.2998C156.779 37.2139 157.708 36.3278 158.822 35.7399C159.915 35.1837 161.114 34.8698 162.338 34.8197C163.563 34.7695 164.784 34.9843 165.918 35.4493C166.864 35.859 167.703 36.4826 168.369 37.2714L166.308 39.183C165.889 38.6642 165.359 38.2463 164.757 37.96C164.156 37.6737 163.498 37.5262 162.832 37.5285C162.031 37.5137 161.239 37.7103 160.537 38.0986C159.873 38.4649 159.325 39.0111 158.955 39.6748C158.589 40.3868 158.398 41.1764 158.398 41.9776C158.398 42.7789 158.589 43.5685 158.955 44.2805C159.325 44.9442 159.873 45.4904 160.537 45.8566C161.239 46.245 162.031 46.4416 162.832 46.4268C163.499 46.4347 164.159 46.2899 164.761 46.0031C165.363 45.7164 165.893 45.2954 166.308 44.7723L168.369 46.6839C167.707 47.4868 166.863 48.1192 165.907 48.5284C164.878 48.9644 163.771 49.1814 162.654 49.1655C161.321 49.1907 160.003 48.8794 158.822 48.2601Z" fill="white"/>
<path d="M183.22 35.058V48.942H180.011V43.252H173.728V48.942H170.519V35.058H173.728V40.5356H180.011V35.058H183.22Z" fill="white"/>
<path d="M199.195 35.058V48.942H196.566L189.67 40.5132V48.942H186.495V35.058H189.147L196.076 43.4868V35.058H199.195Z" fill="white"/>
<path d="M205.301 48.2489C204.175 47.6643 203.237 46.7732 202.593 45.6778C201.951 44.5592 201.613 43.291 201.613 42C201.613 40.7091 201.951 39.4408 202.593 38.3222C203.237 37.2269 204.175 36.3357 205.301 35.7511C206.507 35.1284 207.843 34.8036 209.2 34.8036C210.556 34.8036 211.893 35.1284 213.099 35.7511C214.226 36.3564 215.169 37.2573 215.826 38.3578C216.483 39.4583 216.83 40.7171 216.83 42C216.83 43.2829 216.483 44.5417 215.826 45.6422C215.169 46.7427 214.226 47.6436 213.099 48.2489C211.893 48.8716 210.556 49.1964 209.2 49.1964C207.843 49.1964 206.507 48.8716 205.301 48.2489ZM211.394 45.879C212.05 45.5085 212.59 44.9628 212.954 44.3028C213.321 43.5909 213.512 42.8013 213.512 42C213.512 41.1988 213.321 40.4091 212.954 39.6972C212.59 39.0372 212.05 38.4916 211.394 38.121C210.713 37.7412 209.946 37.5419 209.166 37.5419C208.387 37.5419 207.62 37.7412 206.938 38.121C206.285 38.4948 205.746 39.0396 205.379 39.6972C205.012 40.4091 204.821 41.1988 204.821 42C204.821 42.8013 205.012 43.5909 205.379 44.3028C205.746 44.9604 206.285 45.5052 206.938 45.879C207.62 46.2588 208.387 46.4581 209.166 46.4581C209.946 46.4581 210.713 46.2588 211.394 45.879Z" fill="white"/>
<path d="M219.171 35.058H222.379V46.3261H229.32V48.942H219.171V35.058Z" fill="white"/>
<path d="M233.698 48.2489C232.573 47.6643 231.635 46.7732 230.991 45.6778C230.349 44.5592 230.011 43.291 230.011 42C230.011 40.7091 230.349 39.4408 230.991 38.3222C231.635 37.2269 232.573 36.3357 233.698 35.7511C234.904 35.1284 236.241 34.8036 237.597 34.8036C238.954 34.8036 240.291 35.1284 241.497 35.7511C242.624 36.3564 243.566 37.2573 244.223 38.3578C244.88 39.4583 245.227 40.7171 245.227 42C245.227 43.2829 244.88 44.5417 244.223 45.6422C243.566 46.7427 242.624 47.6436 241.497 48.2489C240.291 48.8716 238.954 49.1964 237.597 49.1964C236.241 49.1964 234.904 48.8716 233.698 48.2489ZM239.803 45.879C240.453 45.505 240.988 44.96 241.352 44.3028C241.725 43.5928 241.919 42.8025 241.919 42C241.919 41.1975 241.725 40.4072 241.352 39.6972C240.988 39.0401 240.453 38.495 239.803 38.121C239.123 37.7386 238.355 37.5421 237.575 37.5509C236.795 37.5367 236.025 37.7336 235.347 38.121C234.695 38.4918 234.159 39.0376 233.798 39.6972C233.426 40.4072 233.231 41.1975 233.231 42C233.231 42.8025 233.426 43.5928 233.798 44.3028C234.159 44.9624 234.695 45.5082 235.347 45.879C236.025 46.2664 236.795 46.4633 237.575 46.4491C238.355 46.4579 239.123 46.2614 239.803 45.879Z" fill="white"/>
<path d="M256.926 41.7764H259.856V47.4217C259.066 48.0008 258.179 48.4359 257.238 48.7072C256.271 49.0083 255.265 49.1627 254.253 49.1656C252.904 49.1852 251.571 48.8662 250.376 48.2377C249.259 47.6505 248.326 46.7645 247.68 45.6778C247.038 44.551 246.7 43.2756 246.7 41.9776C246.7 40.6797 247.038 39.4043 247.68 38.2775C248.331 37.1874 249.272 36.3009 250.398 35.7176C251.609 35.088 252.956 34.7693 254.32 34.7897C255.463 34.772 256.599 34.9809 257.662 35.4046C258.623 35.7935 259.479 36.4066 260.157 37.1932L258.096 39.1047C257.641 38.5967 257.082 38.193 256.457 37.921C255.832 37.6491 255.156 37.5152 254.475 37.5285C253.658 37.5147 252.849 37.7068 252.125 38.0875C251.45 38.4423 250.893 38.9859 250.521 39.6525C250.13 40.3642 249.931 41.1654 249.941 41.9776C249.93 42.7829 250.13 43.5769 250.521 44.2805C250.895 44.9446 251.447 45.4906 252.114 45.8567C252.824 46.2449 253.622 46.4414 254.431 46.4268C255.3 46.4408 256.159 46.2331 256.926 45.8231V41.7764Z" fill="white"/>
<path d="M262.82 35.058H266.028V48.942H262.82V35.058Z" fill="white"/>
<path d="M280.021 46.3709V48.942H269.304V35.058H279.765V37.6291H272.49V40.6474H278.918V43.1179H272.49V46.3373L280.021 46.3709Z" fill="white"/>
<path d="M283.954 48.7072C283.073 48.4859 282.239 48.1072 281.492 47.5893L282.606 45.1636C283.25 45.6258 283.965 45.9806 284.722 46.2144C285.517 46.4783 286.348 46.6142 287.185 46.6168C287.882 46.6654 288.579 46.5224 289.201 46.2032C289.403 46.0974 289.571 45.9362 289.686 45.7383C289.8 45.5404 289.856 45.3139 289.847 45.0853C289.851 44.9276 289.818 44.7712 289.753 44.6279C289.687 44.4846 289.59 44.3581 289.468 44.2581C289.174 44.0217 288.837 43.8434 288.477 43.7327C288.076 43.5985 287.53 43.4532 286.839 43.2967C285.963 43.0954 285.1 42.8416 284.255 42.5366C283.581 42.2912 282.983 41.8753 282.517 41.3293C282.013 40.6975 281.759 39.9014 281.804 39.0935C281.786 38.2995 282.011 37.5191 282.45 36.8578C282.943 36.1585 283.628 35.6185 284.422 35.3039C285.441 34.894 286.532 34.6962 287.63 34.7227C288.505 34.7229 289.377 34.8318 290.226 35.0468C291.011 35.2313 291.763 35.5367 292.454 35.9523L291.463 38.4004C290.303 37.7006 288.983 37.3153 287.63 37.2826C286.938 37.2336 286.246 37.3849 285.636 37.7185C285.444 37.836 285.284 37.9998 285.171 38.195C285.058 38.3903 284.996 38.6108 284.99 38.8364C284.988 39.0694 285.06 39.297 285.193 39.4874C285.327 39.6778 285.517 39.8215 285.736 39.8984C286.454 40.2024 287.2 40.4309 287.964 40.5803C288.844 40.7818 289.711 41.0356 290.56 41.3404C291.225 41.5859 291.818 41.9931 292.287 42.5254C292.8 43.1529 293.058 43.9511 293.011 44.7611C293.026 45.5564 292.796 46.3369 292.354 46.9969C291.85 47.6943 291.158 48.2332 290.36 48.5507C289.337 48.9607 288.241 49.1584 287.14 49.132C286.063 49.1399 284.991 48.997 283.954 48.7072Z" fill="white"/>
<path d="M133.365 72.0707C132.252 71.4828 131.322 70.5967 130.68 69.5108C130.038 68.384 129.701 67.1086 129.701 65.8106C129.701 64.5127 130.038 63.2373 130.68 62.1105C131.325 61.0271 132.254 60.1418 133.365 59.5506C134.554 58.9274 135.879 58.6122 137.22 58.6339C138.335 58.6202 139.442 58.8332 140.473 59.2599C141.419 59.6693 142.255 60.2975 142.913 61.0932L140.852 62.9936C140.429 62.481 139.898 62.0694 139.296 61.789C138.695 61.5086 138.039 61.3664 137.376 61.3727C136.575 61.3545 135.784 61.5472 135.081 61.9316C134.422 62.3015 133.879 62.847 133.51 63.5078C133.137 64.2178 132.942 65.0082 132.942 65.8106C132.942 66.6131 133.137 67.4035 133.51 68.1135C133.872 68.779 134.417 69.3261 135.081 69.6897C135.783 70.078 136.574 70.2746 137.376 70.2598C138.041 70.2634 138.698 70.1177 139.299 69.8334C139.901 69.549 140.431 69.1332 140.852 68.6165L142.913 70.5169C142.255 71.3197 141.414 71.9522 140.462 72.3614C139.429 72.7974 138.318 73.0143 137.198 72.9986C135.863 73.0154 134.545 72.6964 133.365 72.0707Z" fill="white"/>
<path d="M155.791 70.1815V72.7638H145.063V58.8687H155.524V61.451H148.249V64.4692H154.677V66.9621H148.249V70.1815H155.791Z" fill="white"/>
<path d="M171.032 58.8687V72.7638H168.403L161.54 64.3574V72.7974H158.376V58.8687H161.016L167.901 67.2974V58.8687H171.032Z" fill="white"/>
<path d="M177.137 61.4845H172.681V58.8687H184.824V61.4845H180.368V72.7638H177.137V61.4845Z" fill="white"/>
<path d="M197.257 70.1815V72.7638H186.54V58.8687H197.001V61.451H189.726V64.4692H196.154V66.9621H189.726V70.1815H197.257Z" fill="white"/>
<path d="M208.632 72.7638L205.958 68.8848H203.017V72.7638H199.808V58.8687H205.802C206.899 58.8412 207.99 59.0508 208.999 59.4835C209.87 59.8478 210.608 60.4725 211.112 61.2726C211.617 62.0727 211.863 63.0093 211.818 63.955C211.844 64.9008 211.583 65.8322 211.071 66.6267C210.556 67.3959 209.823 67.9919 208.966 68.337L212.074 72.8085L208.632 72.7638ZM207.818 62.1217C207.174 61.6535 206.383 61.4315 205.59 61.4957H202.983V66.336H205.59C206.383 66.4002 207.174 66.1782 207.818 65.71C208.071 65.4883 208.27 65.2123 208.401 64.9027C208.532 64.593 208.592 64.2576 208.576 63.9214C208.594 63.5835 208.535 63.2459 208.403 62.9341C208.272 62.6224 208.072 62.3446 207.818 62.1217Z" fill="white"/>
</svg>
