<svg width="728" height="432" viewBox="0 0 728 432" fill="none" xmlns="http://www.w3.org/2000/svg">
<g clip-path="url(#clip0_101_333)">
<path d="M207.709 38.191V0H19.8123V38.191C7.50982 46.1238 0 59.8363 0 74.6443V352.974C0 376.923 19.4727 396.416 43.3985 396.416H184.123C208.049 396.416 227.521 376.923 227.521 352.974V74.6443C227.521 59.8363 220.049 46.1994 207.709 38.191ZM31.1337 11.3326H196.388V53.6411H31.1337V11.3326ZM216.2 352.974C216.2 370.69 201.822 385.083 184.123 385.083H43.3985C25.6994 385.083 11.3213 370.69 11.3213 352.974V74.6443C11.3213 66.447 14.4158 58.7408 19.8123 52.9234V64.9738H207.709V52.9234C213.105 58.7408 216.2 66.4848 216.2 74.6443V352.974Z" fill="url(#paint0_linear_101_333)"/>
<path d="M183.179 203.874H44.3042C30.794 203.874 19.7746 192.844 19.7746 179.32V103.052C19.7746 89.528 30.794 78.4976 44.3042 78.4976H183.179C196.689 78.4976 207.709 89.528 207.709 103.052V179.32C207.709 192.844 196.689 203.874 183.179 203.874ZM44.3042 89.8302C37.0208 89.8302 31.0959 95.7609 31.0959 103.052V179.32C31.0959 186.611 37.0208 192.542 44.3042 192.542H183.179C190.463 192.542 196.388 186.611 196.388 179.32V103.052C196.388 95.7609 190.463 89.8302 183.179 89.8302H44.3042Z" fill="url(#paint1_linear_101_333)"/>
<path d="M133.592 251.886H93.8916C88.6838 251.886 84.4572 247.656 84.4572 242.443V226.841C84.4572 221.628 88.6838 217.397 93.8916 217.397H133.592C138.8 217.397 143.026 221.628 143.026 226.841V242.443C143.026 247.656 138.8 251.886 133.592 251.886ZM95.7785 240.554H131.705V228.73H95.7785V240.554Z" fill="url(#paint2_linear_101_333)"/>
<path d="M198.274 251.886H158.574C153.366 251.886 149.14 247.656 149.14 242.443V226.841C149.14 221.628 153.366 217.397 158.574 217.397H198.274C203.482 217.397 207.709 221.628 207.709 226.841V242.443C207.709 247.656 203.482 251.886 198.274 251.886ZM160.461 240.554H196.388V228.73H160.461V240.554Z" fill="url(#paint3_linear_101_333)"/>
<path d="M68.9092 251.886H29.209C24.0012 251.886 19.7746 247.656 19.7746 242.443V226.841C19.7746 221.628 24.0012 217.397 29.209 217.397H68.9092C74.117 217.397 78.3437 221.628 78.3437 226.841V242.443C78.3437 247.656 74.117 251.886 68.9092 251.886ZM31.0959 240.554H67.0223V228.73H31.0959V240.554Z" fill="url(#paint4_linear_101_333)"/>
<path d="M133.592 290.871H93.8916C88.6838 290.871 84.4572 286.64 84.4572 281.427V265.826C84.4572 260.613 88.6838 256.382 93.8916 256.382H133.592C138.8 256.382 143.026 260.613 143.026 265.826V281.427C143.026 286.64 138.8 290.871 133.592 290.871ZM95.7785 279.538H131.705V267.714H95.7785V279.538Z" fill="url(#paint5_linear_101_333)"/>
<path d="M198.274 290.871H158.574C153.366 290.871 149.14 286.64 149.14 281.427V265.826C149.14 260.613 153.366 256.382 158.574 256.382H198.274C203.482 256.382 207.709 260.613 207.709 265.826V281.427C207.709 286.64 203.482 290.871 198.274 290.871ZM160.461 279.538H196.388V267.714H160.461V279.538Z" fill="url(#paint6_linear_101_333)"/>
<path d="M68.9092 290.871H29.209C24.0012 290.871 19.7746 286.64 19.7746 281.427V265.826C19.7746 260.613 24.0012 256.382 29.209 256.382H68.9092C74.117 256.382 78.3437 260.613 78.3437 265.826V281.427C78.3437 286.64 74.117 290.871 68.9092 290.871ZM31.0959 279.538H67.0223V267.714H31.0959V279.538Z" fill="url(#paint7_linear_101_333)"/>
<path d="M133.592 329.893H93.8916C88.6838 329.893 84.4572 325.662 84.4572 320.449V304.848C84.4572 299.635 88.6838 295.404 93.8916 295.404H133.592C138.8 295.404 143.026 299.635 143.026 304.848V320.449C143.026 325.662 138.8 329.893 133.592 329.893ZM95.7785 318.56H131.705V306.736H95.7785V318.56Z" fill="url(#paint8_linear_101_333)"/>
<path d="M198.274 329.893H158.574C153.366 329.893 149.14 325.662 149.14 320.449V304.848C149.14 299.635 153.366 295.404 158.574 295.404H198.274C203.482 295.404 207.709 299.635 207.709 304.848V320.449C207.709 325.662 203.482 329.893 198.274 329.893ZM160.461 318.56H196.388V306.736H160.461V318.56Z" fill="url(#paint9_linear_101_333)"/>
<path d="M68.9092 329.893H29.209C24.0012 329.893 19.7746 325.662 19.7746 320.449V304.848C19.7746 299.635 24.0012 295.404 29.209 295.404H68.9092C74.117 295.404 78.3437 299.635 78.3437 304.848V320.449C78.3437 325.662 74.117 329.893 68.9092 329.893ZM31.0959 318.56H67.0223V306.736H31.0959V318.56Z" fill="url(#paint10_linear_101_333)"/>
<path d="M133.592 368.877H93.8916C88.6838 368.877 84.4572 364.646 84.4572 359.433V343.832C84.4572 338.619 88.6838 334.388 93.8916 334.388H133.592C138.8 334.388 143.026 338.619 143.026 343.832V359.433C143.026 364.646 138.8 368.877 133.592 368.877ZM95.7785 357.545H131.705V345.721H95.7785V357.545Z" fill="url(#paint11_linear_101_333)"/>
<path d="M198.274 368.877H158.574C153.366 368.877 149.14 364.646 149.14 359.433V343.832C149.14 338.619 153.366 334.388 158.574 334.388H198.274C203.482 334.388 207.709 338.619 207.709 343.832V359.433C207.709 364.646 203.482 368.877 198.274 368.877ZM160.461 357.545H196.388V345.721H160.461V357.545Z" fill="url(#paint12_linear_101_333)"/>
<path d="M68.9092 368.877H29.209C24.0012 368.877 19.7746 364.646 19.7746 359.433V343.832C19.7746 338.619 24.0012 334.388 29.209 334.388H68.9092C74.117 334.388 78.3437 338.619 78.3437 343.832V359.433C78.3437 364.646 74.117 368.877 68.9092 368.877ZM31.0959 357.545H67.0223V345.721H31.0959V357.545Z" fill="url(#paint13_linear_101_333)"/>
<path d="M322.96 314.745C321.639 314.745 320.318 314.291 319.262 313.385C285.751 284.411 266.504 242.443 266.504 198.208C266.504 153.972 285.751 112.042 319.262 83.068C321.639 81.0281 325.187 81.2925 327.262 83.6724C329.3 86.0522 329.036 89.6031 326.658 91.6808C295.638 118.501 277.826 157.334 277.826 198.208C277.826 239.081 295.638 277.989 326.658 304.772C329.036 306.812 329.3 310.401 327.262 312.78C326.13 314.065 324.545 314.745 322.96 314.745Z" fill="url(#paint14_linear_101_333)"/>
<path d="M403.908 233.679C403.077 233.679 402.21 233.49 401.417 233.112C388.02 226.539 379.718 213.167 379.718 198.208C379.718 183.249 388.058 169.952 401.455 163.341C404.247 161.981 407.644 163.114 409.04 165.91C410.436 168.705 409.266 172.105 406.474 173.503C396.964 178.187 391.077 187.631 391.077 198.17C391.077 208.709 396.964 218.229 406.436 222.875C409.229 224.273 410.399 227.635 409.04 230.468C408.059 232.47 406.059 233.641 403.945 233.641L403.908 233.679Z" fill="url(#paint15_linear_101_333)"/>
<path d="M349.716 287.962C348.471 287.962 347.188 287.547 346.131 286.678C319.526 264.844 304.242 232.583 304.242 198.208C304.242 163.832 319.526 131.61 346.131 109.775C348.546 107.811 352.131 108.151 354.094 110.569C356.056 112.986 355.717 116.575 353.301 118.539C329.3 138.22 315.564 167.27 315.564 198.208C315.564 229.146 329.338 258.233 353.301 277.914C355.717 279.916 356.056 283.467 354.094 285.885C352.962 287.245 351.339 287.962 349.716 287.962Z" fill="url(#paint16_linear_101_333)"/>
<path d="M403.908 233.679C403.077 233.679 402.21 233.49 401.417 233.112C388.02 226.539 379.718 213.167 379.718 198.208C379.718 183.249 388.058 169.952 401.455 163.341C404.247 161.981 407.644 163.114 409.04 165.91C410.436 168.705 409.266 172.105 406.474 173.503C396.964 178.187 391.077 187.631 391.077 198.17C391.077 208.709 396.964 218.229 406.436 222.875C409.229 224.273 410.399 227.635 409.04 230.468C408.059 232.47 406.059 233.641 403.945 233.641L403.908 233.679Z" fill="url(#paint17_linear_101_333)"/>
<path d="M376.586 261.029C375.416 261.029 374.246 260.689 373.227 259.933C353.641 245.541 341.98 222.46 341.98 198.208C341.98 173.956 353.679 150.913 373.227 136.483C375.755 134.632 379.303 135.161 381.152 137.692C383.001 140.223 382.473 143.774 379.944 145.625C363.264 157.902 353.301 177.583 353.301 198.208C353.301 218.833 363.264 238.514 379.944 250.791C382.473 252.642 383.001 256.193 381.152 258.724C380.057 260.235 378.321 261.029 376.586 261.029Z" fill="url(#paint18_linear_101_333)"/>
<path d="M403.908 233.679C403.077 233.679 402.21 233.49 401.417 233.112C388.02 226.539 379.718 213.167 379.718 198.208C379.718 183.249 388.058 169.952 401.455 163.341C404.247 161.981 407.644 163.114 409.04 165.91C410.436 168.705 409.266 172.105 406.474 173.503C396.964 178.187 391.077 187.631 391.077 198.17C391.077 208.709 396.964 218.229 406.436 222.875C409.229 224.273 410.399 227.635 409.04 230.468C408.059 232.47 406.059 233.641 403.945 233.641L403.908 233.679Z" fill="url(#paint19_linear_101_333)"/>
<path d="M727.585 273.759C727.434 271.379 727.245 268.395 727.019 260.273C726.943 258.498 726.906 256.798 726.377 254.493C725.17 248.94 722.151 243.841 717.433 239.421L611.73 155.371L569.539 36.8313C567.35 30.6739 562.859 25.7253 556.972 22.8921C551.047 20.0967 544.368 19.7568 538.217 21.9477L423.003 63.0474C410.285 67.6182 403.606 81.6707 408.134 94.4388L478.1 290.909C478.1 290.909 478.213 291.136 478.289 291.287L469.458 313.31L470.704 315.652C473.647 321.28 477.949 325.511 483.044 327.891C486.478 329.478 489.95 330.12 493.271 330.12C495.233 330.12 497.196 329.893 499.082 329.515L498.026 332.386L500.818 334.955C504.253 338.128 511.574 343.492 522.178 344.021C522.706 344.021 523.235 344.059 523.763 344.059C533.16 344.059 542.33 340.055 548.557 333.142C550.632 330.838 551.991 328.609 553.048 326.456C554.444 332.5 555.991 338.544 557.652 344.512C562.482 361.889 565.992 374.43 573.162 388.445C581.049 403.857 591.729 417.986 605.013 430.451C606.107 431.471 607.465 432 608.862 432C610.371 432 611.881 431.396 613.013 430.225C615.126 427.92 615.013 424.332 612.749 422.216C600.446 410.619 590.521 397.511 583.238 383.308C576.596 370.275 573.388 358.829 568.558 341.452C565.426 330.309 562.784 318.938 560.708 307.606C560.406 306.246 560.142 304.848 559.916 303.488L559.652 302.015L553.387 294.384L550.67 291.098L543.009 281.767L482.78 208.407C481.308 204.819 480.591 201.079 480.629 197.301C480.666 193.637 480.704 190.502 482.553 187.744C486.365 182.191 494.856 182.418 495.233 182.418C497.648 182.531 500.064 183.173 502.328 184.344L582.936 258.195L583.917 258.573C587.653 260.046 591.351 261.595 595.05 263.219C600.031 265.335 605.013 267.601 609.843 269.981C611.277 270.623 612.711 271.341 614.107 272.021C630.863 280.332 635.316 283.996 638.712 287.32C643.241 291.74 647.052 296.915 650.071 302.695C651.543 305.49 654.94 306.548 657.732 305.112C660.487 303.677 661.544 300.239 660.11 297.482C656.525 290.607 651.996 284.487 646.637 279.236C642.335 275.005 637.09 271.115 624.674 264.655C637.392 260.122 643.996 246.032 639.467 233.301L618.9 175.543L709.81 247.845C712.716 250.64 714.565 253.7 715.32 256.949C715.584 258.233 715.622 259.14 715.66 260.764C715.886 268.924 716.113 272.021 716.264 274.514C716.452 277.423 716.565 279.312 716.641 287.925V298.577C716.603 304.584 716.528 317.087 716.15 331.631C715.584 352.974 714.528 372.73 713.735 385.536C713.509 388.634 715.886 391.316 719.018 391.543H719.358C722.339 391.543 724.83 389.238 725.019 386.216C725.811 373.335 726.906 353.427 727.472 331.933C727.849 317.276 727.925 304.697 727.962 298.653V287.887C727.887 278.934 727.774 276.743 727.547 273.759H727.585ZM504.29 315.501C499.611 318.069 493.309 320.147 487.837 317.616C485.233 316.407 483.308 314.405 481.987 312.479L486.176 302.053C487.572 303.148 489.082 304.055 490.705 304.848C494.026 306.435 497.611 307.228 501.196 307.228C503.385 307.228 505.573 306.926 507.724 306.321L504.29 315.501ZM548.896 306.775C547.462 310.552 545.991 314.292 544.481 317.918C543.123 321.167 542.217 323.245 540.141 325.549C535.877 330.271 529.16 332.991 522.706 332.689C517.876 332.462 514.027 330.611 511.423 328.873L513.536 323.207L521.612 301.448L539.349 295.14L548.896 306.775ZM628.863 237.117C631.278 243.992 627.693 251.547 620.825 254.002L610.485 257.704C603.465 254.418 596.257 251.32 589.049 248.412L509.46 175.505L508.404 174.749C504.441 172.521 500.026 171.274 495.611 171.123C493.082 171.01 480.214 171.085 473.194 181.36C469.421 186.951 469.345 192.617 469.307 197.188C469.232 202.817 470.402 208.37 472.704 213.658L473.006 214.376L531.688 285.809L522.895 288.945L512.857 292.533L505.649 295.102C502.328 296.311 498.743 296.122 495.535 294.611C493.611 293.704 491.988 292.344 490.742 290.682C489.912 289.625 489.233 288.416 488.78 287.094L484.629 275.459L418.814 90.6235C416.361 83.7484 419.946 76.1933 426.815 73.7379L541.99 32.6382C543.462 32.1093 544.972 31.8449 546.443 31.8449C548.368 31.8449 550.293 32.2982 552.104 33.1293C555.274 34.6403 557.689 37.3223 558.897 40.6466L595.125 142.376L602.22 162.246L628.863 237.117Z" fill="url(#paint20_linear_101_333)"/>
</g>
<defs>
<linearGradient id="paint0_linear_101_333" x1="113.761" y1="0" x2="113.761" y2="396.416" gradientUnits="userSpaceOnUse">
<stop stop-color="#6FCF3E"/>
<stop offset="1" stop-color="#60B436"/>
</linearGradient>
<linearGradient id="paint1_linear_101_333" x1="113.742" y1="78.4976" x2="113.742" y2="203.874" gradientUnits="userSpaceOnUse">
<stop stop-color="#6FCF3E"/>
<stop offset="1" stop-color="#60B436"/>
</linearGradient>
<linearGradient id="paint2_linear_101_333" x1="113.742" y1="217.397" x2="113.742" y2="251.886" gradientUnits="userSpaceOnUse">
<stop stop-color="#6FCF3E"/>
<stop offset="1" stop-color="#60B436"/>
</linearGradient>
<linearGradient id="paint3_linear_101_333" x1="178.424" y1="217.397" x2="178.424" y2="251.886" gradientUnits="userSpaceOnUse">
<stop stop-color="#6FCF3E"/>
<stop offset="1" stop-color="#60B436"/>
</linearGradient>
<linearGradient id="paint4_linear_101_333" x1="49.0591" y1="217.397" x2="49.0591" y2="251.886" gradientUnits="userSpaceOnUse">
<stop stop-color="#6FCF3E"/>
<stop offset="1" stop-color="#60B436"/>
</linearGradient>
<linearGradient id="paint5_linear_101_333" x1="113.742" y1="256.382" x2="113.742" y2="290.871" gradientUnits="userSpaceOnUse">
<stop stop-color="#6FCF3E"/>
<stop offset="1" stop-color="#60B436"/>
</linearGradient>
<linearGradient id="paint6_linear_101_333" x1="178.424" y1="256.382" x2="178.424" y2="290.871" gradientUnits="userSpaceOnUse">
<stop stop-color="#6FCF3E"/>
<stop offset="1" stop-color="#60B436"/>
</linearGradient>
<linearGradient id="paint7_linear_101_333" x1="49.0591" y1="256.382" x2="49.0591" y2="290.871" gradientUnits="userSpaceOnUse">
<stop stop-color="#6FCF3E"/>
<stop offset="1" stop-color="#60B436"/>
</linearGradient>
<linearGradient id="paint8_linear_101_333" x1="113.742" y1="295.404" x2="113.742" y2="329.893" gradientUnits="userSpaceOnUse">
<stop stop-color="#6FCF3E"/>
<stop offset="1" stop-color="#60B436"/>
</linearGradient>
<linearGradient id="paint9_linear_101_333" x1="178.424" y1="295.404" x2="178.424" y2="329.893" gradientUnits="userSpaceOnUse">
<stop stop-color="#6FCF3E"/>
<stop offset="1" stop-color="#60B436"/>
</linearGradient>
<linearGradient id="paint10_linear_101_333" x1="49.0591" y1="295.404" x2="49.0591" y2="329.893" gradientUnits="userSpaceOnUse">
<stop stop-color="#6FCF3E"/>
<stop offset="1" stop-color="#60B436"/>
</linearGradient>
<linearGradient id="paint11_linear_101_333" x1="113.742" y1="334.388" x2="113.742" y2="368.877" gradientUnits="userSpaceOnUse">
<stop stop-color="#6FCF3E"/>
<stop offset="1" stop-color="#60B436"/>
</linearGradient>
<linearGradient id="paint12_linear_101_333" x1="178.424" y1="334.388" x2="178.424" y2="368.877" gradientUnits="userSpaceOnUse">
<stop stop-color="#6FCF3E"/>
<stop offset="1" stop-color="#60B436"/>
</linearGradient>
<linearGradient id="paint13_linear_101_333" x1="49.0591" y1="334.388" x2="49.0591" y2="368.877" gradientUnits="userSpaceOnUse">
<stop stop-color="#6FCF3E"/>
<stop offset="1" stop-color="#60B436"/>
</linearGradient>
<linearGradient id="paint14_linear_101_333" x1="297.568" y1="81.6968" x2="297.568" y2="314.745" gradientUnits="userSpaceOnUse">
<stop stop-color="#6FCF3E"/>
<stop offset="1" stop-color="#60B436"/>
</linearGradient>
<linearGradient id="paint15_linear_101_333" x1="394.674" y1="162.767" x2="394.674" y2="233.679" gradientUnits="userSpaceOnUse">
<stop stop-color="#6FCF3E"/>
<stop offset="1" stop-color="#60B436"/>
</linearGradient>
<linearGradient id="paint16_linear_101_333" x1="329.804" y1="108.501" x2="329.804" y2="287.962" gradientUnits="userSpaceOnUse">
<stop stop-color="#6FCF3E"/>
<stop offset="1" stop-color="#60B436"/>
</linearGradient>
<linearGradient id="paint17_linear_101_333" x1="394.674" y1="162.767" x2="394.674" y2="233.679" gradientUnits="userSpaceOnUse">
<stop stop-color="#6FCF3E"/>
<stop offset="1" stop-color="#60B436"/>
</linearGradient>
<linearGradient id="paint18_linear_101_333" x1="362.117" y1="135.38" x2="362.117" y2="261.029" gradientUnits="userSpaceOnUse">
<stop stop-color="#6FCF3E"/>
<stop offset="1" stop-color="#60B436"/>
</linearGradient>
<linearGradient id="paint19_linear_101_333" x1="394.674" y1="162.767" x2="394.674" y2="233.679" gradientUnits="userSpaceOnUse">
<stop stop-color="#6FCF3E"/>
<stop offset="1" stop-color="#60B436"/>
</linearGradient>
<linearGradient id="paint20_linear_101_333" x1="567.339" y1="20.519" x2="567.339" y2="432" gradientUnits="userSpaceOnUse">
<stop stop-color="#6FCF3E"/>
<stop offset="1" stop-color="#60B436"/>
</linearGradient>
<clipPath id="clip0_101_333">
<rect width="728" height="432" fill="white"/>
</clipPath>
</defs>
</svg>
