<svg width="361" height="487" viewBox="0 0 361 487" fill="none" xmlns="http://www.w3.org/2000/svg">
<circle cx="180.5" cy="180.5" r="168.5" fill="white" stroke="#FF0000" stroke-width="24"/>
<path d="M251.636 235.64C256.021 240.026 256.021 247.211 251.636 251.673C249.368 253.866 246.495 255 243.623 255C240.75 255 237.802 253.866 235.61 251.673L180.5 196.542L125.315 251.673C123.123 253.866 120.25 255 117.302 255C114.353 255 111.556 253.866 109.288 251.673C104.904 247.211 104.904 240.026 109.288 235.64L164.398 180.509L109.364 125.379C104.904 120.917 104.904 113.733 109.364 109.346C113.824 104.885 121.006 104.885 125.315 109.346L180.5 164.477L235.685 109.346C240.07 104.885 247.251 104.885 251.712 109.346C256.096 113.733 256.096 120.917 251.712 125.379L196.602 180.509L251.712 235.64H251.636Z" fill="#FF0000"/>
<path d="M70.5369 464V394.182H117.582V406.352H85.2983V422.989H115.162V435.159H85.2983V451.83H117.719V464H70.5369ZM129.045 464V411.636H143.125V420.773H143.67C144.625 417.523 146.227 415.068 148.477 413.409C150.727 411.727 153.318 410.886 156.25 410.886C156.977 410.886 157.761 410.932 158.602 411.023C159.443 411.114 160.182 411.239 160.818 411.398V424.284C160.136 424.08 159.193 423.898 157.989 423.739C156.784 423.58 155.682 423.5 154.682 423.5C152.545 423.5 150.636 423.966 148.955 424.898C147.295 425.807 145.977 427.08 145 428.716C144.045 430.352 143.568 432.239 143.568 434.375V464H129.045ZM168.327 464V411.636H182.406V420.773H182.952C183.906 417.523 185.509 415.068 187.759 413.409C190.009 411.727 192.599 410.886 195.531 410.886C196.259 410.886 197.043 410.932 197.884 411.023C198.724 411.114 199.463 411.239 200.099 411.398V424.284C199.418 424.08 198.474 423.898 197.27 423.739C196.065 423.58 194.963 423.5 193.963 423.5C191.827 423.5 189.918 423.966 188.236 424.898C186.577 425.807 185.259 427.08 184.281 428.716C183.327 430.352 182.849 432.239 182.849 434.375V464H168.327ZM228.83 465.023C223.534 465.023 218.955 463.898 215.091 461.648C211.25 459.375 208.284 456.216 206.193 452.17C204.102 448.102 203.057 443.386 203.057 438.023C203.057 432.614 204.102 427.886 206.193 423.841C208.284 419.773 211.25 416.614 215.091 414.364C218.955 412.091 223.534 410.955 228.83 410.955C234.125 410.955 238.693 412.091 242.534 414.364C246.398 416.614 249.375 419.773 251.466 423.841C253.557 427.886 254.602 432.614 254.602 438.023C254.602 443.386 253.557 448.102 251.466 452.17C249.375 456.216 246.398 459.375 242.534 461.648C238.693 463.898 234.125 465.023 228.83 465.023ZM228.898 453.773C231.307 453.773 233.318 453.091 234.932 451.727C236.545 450.341 237.761 448.455 238.58 446.068C239.42 443.682 239.841 440.966 239.841 437.92C239.841 434.875 239.42 432.159 238.58 429.773C237.761 427.386 236.545 425.5 234.932 424.114C233.318 422.727 231.307 422.034 228.898 422.034C226.466 422.034 224.42 422.727 222.761 424.114C221.125 425.5 219.886 427.386 219.045 429.773C218.227 432.159 217.818 434.875 217.818 437.92C217.818 440.966 218.227 443.682 219.045 446.068C219.886 448.455 221.125 450.341 222.761 451.727C224.42 453.091 226.466 453.773 228.898 453.773ZM264.045 464V411.636H278.125V420.773H278.67C279.625 417.523 281.227 415.068 283.477 413.409C285.727 411.727 288.318 410.886 291.25 410.886C291.977 410.886 292.761 410.932 293.602 411.023C294.443 411.114 295.182 411.239 295.818 411.398V424.284C295.136 424.08 294.193 423.898 292.989 423.739C291.784 423.58 290.682 423.5 289.682 423.5C287.545 423.5 285.636 423.966 283.955 424.898C282.295 425.807 280.977 427.08 280 428.716C279.045 430.352 278.568 432.239 278.568 434.375V464H264.045Z" fill="#FF0000"/>
</svg>
