<svg xmlns="http://www.w3.org/2000/svg" version="1.1" xmlns:xlink="http://www.w3.org/1999/xlink" width="512" height="512" x="0" y="0" viewBox="0 0 496 496" style="enable-background:new 0 0 512 512" xml:space="preserve" class=""><g><path d="M0 304v65.6C0 396.8 21.6 416 48 416h400c26.4 0 48-19.2 48-46.4V304H0z" style="" fill="#e73b36" data-original="#e73b36" class=""></path><path d="M448 80H48C21.6 80 0 99.2 0 126.4V192h496v-65.6c0-27.2-21.6-46.4-48-46.4z" style="" fill="#f0f7f6" data-original="#f0f7f6"></path><path d="M0 192h496v112H0z" style="" fill="#3757a6" data-original="#3757a6"></path><path d="M446.4 416c26.4 0 49.6-19.2 49.6-46.4V304H315.2l131.2 112z" style="" fill="#d31c1c" data-original="#d31c1c"></path><path d="M448 80H48l132.8 112H496v-65.6c0-27.2-21.6-46.4-48-46.4z" style="" fill="#dff2ef" data-original="#dff2ef"></path><path d="M316 304h180V192H180z" style="" fill="#20448e" data-original="#20448e"></path><path d="M448 80H48l370.4 112H496v-65.6c0-27.2-21.6-46.4-48-46.4z" style="" fill="#caeae4" data-original="#caeae4"></path><path d="M496 214.4V192h-81.6z" style="" fill="#103577" data-original="#103577"></path><path d="M496 368.8c0 29.6-21.6 47.2-48 47.2H48c-26.4 0-48-20.8-48-48" style="" fill="#c41010" data-original="#c41010" class=""></path></g></svg>